<svg xmlns="http://www.w3.org/2000/svg" width="1630.52" height="1321.981" viewBox="0 0 1630.52 1321.981"><defs><style>.a,.b{fill:#461272;}.a{fill-rule:evenodd;}</style></defs><g transform="translate(0.211 -0.476)"><path class="a" d="M1625.245,1462.313h797.571a36.667,36.667,0,0,0,36.56-36.56V496.018a94.221,94.221,0,0,0-32.246,20.133,620.461,620.461,0,0,0-357.346-184.01c-173.556-25.728-340.966,22.776-470.113,121.579a263.493,263.493,0,0,0-87.587-29.239c-144.234-21.38-278.493,78.212-299.875,222.446-17.2,116.006,43.87,225.54,143.467,275.1-9.624,218.924,96.786,421.3,269.569,540.283ZM2459.376,440.947a48.864,48.864,0,1,1,0-70.744v70.744ZM1355.17,1238.175a54.823,54.823,0,1,1-62.27,46.189,54.825,54.825,0,0,1,62.27-46.189ZM1203.987,968.031a131.287,131.287,0,1,1-149.119,110.615A131.289,131.289,0,0,1,1203.987,968.031Z" transform="translate(-829.067 -139.857)"/><circle class="b" cx="121" cy="121" r="121" transform="translate(618.789 0.476)"/><ellipse class="b" cx="252.5" cy="252" rx="252.5" ry="252" transform="translate(-0.211 663.475)"/></g></svg>