<svg xmlns="http://www.w3.org/2000/svg" xmlns:xlink="http://www.w3.org/1999/xlink" width="399" height="409" viewBox="0 0 399 409"><defs><style>.a{fill:#dce3ff;}.b{fill:#e7f6fd;}.c{fill:#f23d92;}.d{fill:#b2d3ea;}.e{fill:#f5315f;}.f{fill:#d4ecff;}.ai,.g{fill:#fff;}.h{fill:#9a94f9;}.i{fill:#8a82fc;}.j,.k{mix-blend-mode:hard-light;isolation:isolate;}.j{fill:url(#c);}.l{fill:#173d7a;}.m{fill:#396caa;}.n{fill:#222538;}.o{fill:#545d94;}.p{fill:#d9d3c8;}.q{fill:#ffc2b0;}.r{fill:#ffc955;}.s{fill:#ea9c92;}.t{fill:#ec5ba1;}.u{fill:#082539;}.v{fill:#1b2d39;}.w{fill:#ff8557;}.x{fill:#330e54;}.y{fill:#0a3048;}.z{fill:#f194c1;}.aa{fill:#4c5385;}.ab{fill:#163342;}.ac{fill:#0a466d;}.ad{fill:#5793ce;}.ae{fill:#274f89;}.af{fill:#ffd4d8;}.ag{fill:#134a6e;}.ah{fill:#09324d;}.ai{stroke:rgba(0,0,0,0);stroke-miterlimit:10;}.aj{filter:url(#a);}</style><filter id="a" x="0" y="0" width="399" height="409" filterUnits="userSpaceOnUse"><feOffset dx="4" dy="8" input="SourceAlpha"/><feGaussianBlur stdDeviation="8" result="b"/><feFlood flood-opacity="0.078"/><feComposite operator="in" in2="b"/><feComposite in="SourceGraphic"/></filter><linearGradient id="c" x1="0.5" y1="0.534" x2="0.5" y2="4.045" gradientUnits="objectBoundingBox"><stop offset="0" stop-color="#2337bb" stop-opacity="0.651"/><stop offset="1" stop-color="#f5f5f5"/></linearGradient></defs><g transform="translate(19.639 16.325)"><g class="aj" transform="matrix(1, 0, 0, 1, -19.64, -16.33)"><rect class="a" width="351" height="361" rx="12" transform="translate(20 16)"/></g><g transform="translate(24.687 36.222)"><g transform="translate(70.484 68.35)"><path class="b" d="M315.049,162.826l-16.6-9.661c-1.4-.809-1.226-2.222.392-3.156l15.826-9.221a6.076,6.076,0,0,1,5.467-.227l16.6,9.661c1.4.809,1.226,2.222-.392,3.156L320.516,162.6A6.077,6.077,0,0,1,315.049,162.826Z" transform="translate(-292.061 -112.801)"/><path class="c" d="M342.024,129.239h0v-4.226L319.576,125l.155-.005a7.722,7.722,0,0,0-6.947.287l.665-.277-22.467-.013V129.5a2.012,2.012,0,0,0,1.193,1.861l21.1,12.276a7.72,7.72,0,0,0,6.947-.288l20.111-11.716A2.753,2.753,0,0,0,342.024,129.239Z" transform="translate(-290.973 -110.181)"/><path class="c" d="M316.508,124.307a8.014,8.014,0,0,0-3.724.977l.665-.277-22.467-.013v4.512a2.012,2.012,0,0,0,1.193,1.861l21.1,12.276a6.289,6.289,0,0,0,3.224.689Z" transform="translate(-290.973 -110.182)"/><path class="d" d="M293.525,125.133l-2.543,0v4.512a2.012,2.012,0,0,0,1.193,1.861l1.35.78Z" transform="translate(-290.973 -110.32)"/><path class="e" d="M318.272,146.58a7.923,7.923,0,0,0,5.554-.063v-5.906h-5.554Z" transform="translate(-295.524 -112.901)"/><path class="f" d="M313.274,136.342l-21.1-12.276c-1.781-1.028-1.557-2.824.5-4.011l20.11-11.717a7.722,7.722,0,0,1,6.947-.287l21.1,12.276c1.781,1.028,1.557,2.824-.5,4.011L320.22,136.054A7.722,7.722,0,0,1,313.274,136.342Z" transform="translate(-290.972 -107.356)"/><g transform="translate(19.565 6.807)"><path class="g" d="M321.279,121.226l-6.205-3.608a.915.915,0,0,1,0-1.734,3.32,3.32,0,0,1,3,0l6.205,3.608a.915.915,0,0,1,0,1.734A3.32,3.32,0,0,1,321.279,121.226Z" transform="translate(-314.452 -115.526)"/></g><g transform="translate(31.022 13.465)"><path class="g" d="M332.591,127.831l-3.767-2.222a.915.915,0,0,1,0-1.734,3.322,3.322,0,0,1,3,0l3.766,2.223a.915.915,0,0,1,0,1.733A3.315,3.315,0,0,1,332.591,127.831Z" transform="translate(-328.202 -123.516)"/></g><g transform="translate(13.305 10.41)"><path class="g" d="M311.328,124.164l-3.767-2.223a.915.915,0,0,1,0-1.733,3.322,3.322,0,0,1,3,0l3.766,2.223a.915.915,0,0,1,0,1.733A3.32,3.32,0,0,1,311.328,124.164Z" transform="translate(-306.94 -119.848)"/></g></g><path class="b" d="M480.713,265.159,362.958,197.174c-3.331-1.923-9.149-1.682-13,.539L269.78,243.991c-3.846,2.221-4.265,5.579-.933,7.5l40.483,23.373a21.565,21.565,0,0,0-8.781,2.556c-6.168,3.561-6.168,9.335,0,12.9s16.169,3.561,22.337,0c2.474-1.429,3.938-3.215,4.427-5.07l9.566,5.523a19.747,19.747,0,0,0-5.468,2.071c-6.293,3.633-6.292,9.524,0,13.157s16.5,3.633,22.788,0a10.794,10.794,0,0,0,3.587-3.157L386.6,319.48c3.331,1.923,9.15,1.682,13-.539l80.182-46.278C483.627,270.442,484.044,267.083,480.713,265.159Z" transform="translate(-216.424 -53.765)"/><g transform="translate(44.514 0)"><path class="h" d="M532.312,96.891l-122.636-70.8a4.95,4.95,0,0,0-4.155-.51l.007-.013-.222.084-.054.021-4.432,1.7,3.978,1.947c-.018.073-.041.142-.057.217l-19.975,90.927c-1,4.55,1,9.863,4.471,11.866l119.687,69.1L508.5,206.5l4.844-1.877a6.806,6.806,0,0,0,3.469-4.935l19.976-90.927C537.783,104.207,535.782,98.894,532.312,96.891Z" transform="translate(-280.598 -25.329)"/><path class="h" d="M533.726,96.891,411.09,26.087a4.95,4.95,0,0,0-4.155-.51l.007-.013-.223.084-.054.021-4.432,1.7,3.978,1.947c-.018.073-.041.142-.057.217L392.989,89.456l60,46.749L537.6,101.778A9.52,9.52,0,0,0,533.726,96.891Z" transform="translate(-282.012 -25.329)"/><path class="i" d="M554.493,125.319l9.336-3.975A11.7,11.7,0,0,0,560.047,112l-14.777,6.216Z" transform="translate(-307.403 -39.779)"/><path class="f" d="M502.707,206.356l-122.636-70.8c-3.469-2-5.471-7.315-4.471-11.866l19.975-90.927c1-4.55,4.623-6.616,8.092-4.613L526.3,98.95c3.47,2,5.471,7.316,4.471,11.867L510.8,201.744C509.8,206.294,506.177,208.359,502.707,206.356Z" transform="translate(-279.07 -25.671)"/><path class="g" d="M501.058,200.927,385.72,134.37c-3.174-1.833-5.006-6.694-4.091-10.858l18.279-83.206c.915-4.164,4.23-6.054,7.4-4.22L522.65,102.642c3.175,1.833,5.007,6.694,4.092,10.858l-18.279,83.206C507.548,200.87,504.233,202.76,501.058,200.927Z" transform="translate(-280.079 -27.005)"/><path class="j" d="M501.058,200.927,385.72,134.37c-3.174-1.833-5.006-6.694-4.091-10.858l18.279-83.206c.915-4.164,4.23-6.054,7.4-4.22L522.65,102.642c3.175,1.833,5.007,6.694,4.092,10.858l-18.279,83.206C507.548,200.87,504.233,202.76,501.058,200.927Z" transform="translate(-280.079 -27.005)"/><path class="h" d="M485.137,232.655l-16.764-2.214L360.162,167.965c-3.47-2-9.529-1.752-13.536.562L269.948,212.78l-10.137-1.338v5.751l.01,0a3.947,3.947,0,0,0,2.327,3.552l122.636,70.8c3.47,2,9.529,1.752,13.535-.562l83.506-48.2c2.254-1.3,3.377-2.977,3.311-4.551h0Z" transform="translate(-259.806 -48.886)"/><path class="h" d="M403.831,197.6l-7.689-4.439H311.617l-41.67,24.041-10.137-1.338v5.751l.01,0a3.947,3.947,0,0,0,2.327,3.552l122.636,70.8a12.7,12.7,0,0,0,6.985,1.309Z" transform="translate(-259.806 -53.313)"/><path class="i" d="M264.31,221.006l-4.5-.594v5.751l.01,0a3.947,3.947,0,0,0,2.327,3.552l2.161,1.248Z" transform="translate(-259.806 -57.856)"/><path class="i" d="M411.274,314.53a15.705,15.705,0,0,0,11.5-.714V300.988h-11.5Z" transform="translate(-285.061 -71.291)"/><path class="f" d="M384.784,283.9l-122.636-70.8c-3.469-2-3.034-5.5.972-7.814l83.506-48.2c4.006-2.313,10.066-2.564,13.536-.561l122.636,70.8c3.469,2,3.034,5.5-.973,7.814l-83.506,48.2C394.313,285.651,388.253,285.9,384.784,283.9Z" transform="translate(-259.805 -46.978)"/><g class="k" transform="translate(48.651 112.553)"><path class="l" d="M324.042,194.907l-5.549-3.2c-.446-.257-.39-.707.125-1l6.549-3.781a1.93,1.93,0,0,1,1.738-.072l5.549,3.2c.446.257.389.707-.125,1l-6.549,3.781A1.935,1.935,0,0,1,324.042,194.907Z" transform="translate(-318.192 -164.784)"/><path class="l" d="M334.326,200.844l-5.549-3.2c-.446-.257-.39-.707.124-1l6.549-3.781a1.933,1.933,0,0,1,1.738-.073l5.55,3.2c.445.257.389.707-.125,1l-6.549,3.781A1.93,1.93,0,0,1,334.326,200.844Z" transform="translate(-319.906 -165.773)"/><path class="l" d="M344.609,206.781l-5.549-3.2c-.445-.257-.389-.707.125-1l6.549-3.781a1.932,1.932,0,0,1,1.738-.072l5.549,3.2c.446.257.39.707-.124,1l-6.55,3.781A1.932,1.932,0,0,1,344.609,206.781Z" transform="translate(-321.621 -166.763)"/><path class="l" d="M358.832,202l-5.549-3.2c-.445-.257-.389-.707.125-1l5.5-3.175a1.932,1.932,0,0,1,1.738-.072l5.549,3.2c.446.257.39.707-.125,1l-5.5,3.174A1.93,1.93,0,0,1,358.832,202Z" transform="translate(-323.993 -166.067)"/><path class="l" d="M369.116,207.937l-5.549-3.2c-.446-.258-.39-.707.125-1l5.5-3.174a1.932,1.932,0,0,1,1.738-.072l5.549,3.2c.446.257.389.707-.125,1l-5.5,3.175A1.932,1.932,0,0,1,369.116,207.937Z" transform="translate(-325.707 -167.057)"/><path class="l" d="M379.4,213.874l-5.549-3.2c-.446-.257-.39-.707.124-1l5.5-3.175a1.932,1.932,0,0,1,1.738-.072l5.55,3.2c.445.257.389.707-.125,1l-5.5,3.174A1.93,1.93,0,0,1,379.4,213.874Z" transform="translate(-327.422 -168.047)"/><path class="l" d="M389.683,219.812l-5.549-3.2c-.445-.258-.389-.707.125-1l5.5-3.175a1.932,1.932,0,0,1,1.738-.072l5.549,3.2c.446.257.39.706-.124,1l-5.5,3.174A1.932,1.932,0,0,1,389.683,219.812Z" transform="translate(-329.137 -169.037)"/><path class="l" d="M399.966,225.749l-5.549-3.2c-.446-.257-.39-.706.125-1l5.5-3.174a1.93,1.93,0,0,1,1.738-.073l5.549,3.2c.446.257.39.707-.125,1l-5.5,3.175A1.932,1.932,0,0,1,399.966,225.749Z" transform="translate(-330.851 -170.027)"/><path class="l" d="M410.25,231.686l-5.549-3.2c-.446-.257-.39-.707.124-1l5.5-3.174a1.932,1.932,0,0,1,1.738-.073l5.549,3.2c.445.258.389.707-.125,1l-5.5,3.174A1.932,1.932,0,0,1,410.25,231.686Z" transform="translate(-332.566 -171.017)"/><path class="l" d="M420.534,237.624l-5.549-3.2c-.445-.257-.389-.707.125-1l5.5-3.175a1.932,1.932,0,0,1,1.738-.072l5.549,3.2c.446.258.39.707-.124,1l-5.5,3.174A1.932,1.932,0,0,1,420.534,237.624Z" transform="translate(-334.281 -172.007)"/><path class="l" d="M430.818,243.561l-5.549-3.2c-.446-.257-.39-.707.125-1l5.5-3.174a1.93,1.93,0,0,1,1.738-.073l5.549,3.2c.446.257.39.707-.125,1l-5.5,3.175A1.932,1.932,0,0,1,430.818,243.561Z" transform="translate(-335.995 -172.997)"/><path class="l" d="M441.1,249.5l-5.549-3.2c-.446-.257-.39-.707.125-1l5.5-3.174a1.932,1.932,0,0,1,1.738-.072l5.549,3.2c.445.257.389.707-.125,1l-5.5,3.175A1.932,1.932,0,0,1,441.1,249.5Z" transform="translate(-337.71 -173.987)"/><path class="l" d="M451.385,255.436l-5.549-3.2c-.446-.258-.39-.707.124-1l5.5-3.175a1.932,1.932,0,0,1,1.738-.072l5.549,3.2c.446.257.39.707-.124,1l-5.5,3.174A1.932,1.932,0,0,1,451.385,255.436Z" transform="translate(-339.425 -174.977)"/><path class="m" d="M373.985,199.189l-5.549-3.2c-.446-.257-.39-.707.124-1l5.5-3.174a1.93,1.93,0,0,1,1.738-.072l5.549,3.2c.445.257.389.707-.125,1l-5.5,3.174A1.93,1.93,0,0,1,373.985,199.189Z" transform="translate(-326.519 -165.599)"/><path class="m" d="M363.547,193.163l-5.549-3.2c-.445-.257-.389-.707.125-1l5.5-3.174a1.93,1.93,0,0,1,1.738-.072l5.549,3.2c.446.257.39.707-.124,1l-5.5,3.175A1.932,1.932,0,0,1,363.547,193.163Z" transform="translate(-324.779 -164.594)"/><path class="l" d="M351.812,186.387l-11.951-6.9c-.445-.257-.389-.707.125-1l5.5-3.175a1.932,1.932,0,0,1,1.738-.072l11.951,6.9c.446.257.39.707-.125,1l-5.5,3.175A1.932,1.932,0,0,1,351.812,186.387Z" transform="translate(-321.755 -162.848)"/><path class="l" d="M359.57,179.307l-9.7-5.6c-.446-.257-.39-.707.125-1l5.5-3.174a1.93,1.93,0,0,1,1.738-.073l9.7,5.6c.445.257.389.707-.125,1l-5.5,3.175A1.932,1.932,0,0,1,359.57,179.307Z" transform="translate(-323.424 -161.884)"/><path class="m" d="M384.268,205.126l-5.549-3.2c-.445-.257-.389-.707.125-1l5.5-3.174a1.932,1.932,0,0,1,1.738-.072l5.549,3.2c.446.257.39.707-.125,1l-5.5,3.175A1.932,1.932,0,0,1,384.268,205.126Z" transform="translate(-328.234 -166.589)"/><path class="l" d="M394.551,211.064,389,207.86c-.446-.257-.39-.707.125-1l5.5-3.175a1.932,1.932,0,0,1,1.738-.072l5.549,3.2c.446.257.39.707-.125,1l-5.5,3.174A1.935,1.935,0,0,1,394.551,211.064Z" transform="translate(-329.948 -167.579)"/><path class="l" d="M404.836,217l-5.549-3.2c-.446-.257-.39-.707.124-1l5.5-3.175a1.932,1.932,0,0,1,1.738-.072l5.549,3.2c.445.257.389.706-.125,1l-5.5,3.174A1.93,1.93,0,0,1,404.836,217Z" transform="translate(-331.663 -168.569)"/><path class="l" d="M415.119,222.938l-5.549-3.2c-.445-.258-.389-.707.125-1l5.5-3.174a1.933,1.933,0,0,1,1.738-.073l5.549,3.2c.446.258.39.707-.124,1l-5.5,3.175A1.931,1.931,0,0,1,415.119,222.938Z" transform="translate(-333.378 -169.559)"/><path class="l" d="M425.4,228.875l-5.549-3.2c-.446-.258-.39-.707.125-1l5.5-3.175a1.932,1.932,0,0,1,1.738-.072l5.549,3.2c.446.258.39.707-.125,1l-5.5,3.174A1.932,1.932,0,0,1,425.4,228.875Z" transform="translate(-335.092 -170.549)"/><path class="l" d="M435.686,234.813l-5.549-3.2c-.446-.257-.39-.707.125-1l5.5-3.175a1.932,1.932,0,0,1,1.738-.072l5.549,3.2c.445.257.389.707-.125,1l-5.5,3.174A1.933,1.933,0,0,1,435.686,234.813Z" transform="translate(-336.807 -171.538)"/><path class="l" d="M445.97,240.75l-5.549-3.2c-.445-.257-.389-.706.125-1l5.5-3.174a1.93,1.93,0,0,1,1.738-.072l5.549,3.2c.446.257.39.707-.124,1l-5.5,3.175A1.933,1.933,0,0,1,445.97,240.75Z" transform="translate(-338.522 -172.528)"/><path class="l" d="M456.254,246.687l-5.549-3.2c-.445-.257-.389-.707.125-1l5.5-3.174a1.929,1.929,0,0,1,1.738-.072l5.549,3.2c.446.257.39.707-.125,1l-5.5,3.175A1.932,1.932,0,0,1,456.254,246.687Z" transform="translate(-340.236 -173.518)"/><path class="l" d="M466.537,252.625l-5.549-3.2c-.446-.257-.39-.707.125-1l5.5-3.175a1.932,1.932,0,0,1,1.738-.072l5.549,3.2c.446.258.389.707-.125,1l-5.5,3.174A1.933,1.933,0,0,1,466.537,252.625Z" transform="translate(-341.951 -174.508)"/><path class="l" d="M483.507,262.422l-12.107-6.99c-.445-.257-.389-.707.125-1l5.5-3.175a1.932,1.932,0,0,1,1.738-.072l12.107,6.99c.446.257.39.706-.125,1l-5.5,3.174A1.932,1.932,0,0,1,483.507,262.422Z" transform="translate(-343.687 -175.511)"/><path class="l" d="M503.906,251.081l-10.218-5.9c-.446-.257-.39-.707.124-1l5.5-3.175a1.931,1.931,0,0,1,1.737-.072l10.219,5.9c.446.258.39.707-.125,1l-5.5,3.174A1.932,1.932,0,0,1,503.906,251.081Z" transform="translate(-347.403 -173.801)"/><path class="l" d="M402.277,203.965l-5.549-3.2c-.445-.257-.389-.707.125-1l5.5-3.175a1.932,1.932,0,0,1,1.738-.072l5.549,3.2c.446.257.39.707-.125,1l-5.5,3.174A1.933,1.933,0,0,1,402.277,203.965Z" transform="translate(-331.236 -166.395)"/><path class="l" d="M391.737,197.88l-5.549-3.2c-.446-.257-.39-.707.125-1l5.5-3.175a1.932,1.932,0,0,1,1.738-.072l5.549,3.2c.445.258.389.707-.125,1l-5.5,3.174A1.933,1.933,0,0,1,391.737,197.88Z" transform="translate(-329.479 -165.38)"/><path class="m" d="M381.2,191.795l-5.549-3.2c-.445-.257-.389-.707.125-1l5.5-3.175a1.932,1.932,0,0,1,1.738-.072l5.549,3.2c.446.257.39.707-.125,1l-5.5,3.174A1.932,1.932,0,0,1,381.2,191.795Z" transform="translate(-327.722 -164.366)"/><path class="l" d="M370.658,185.71l-5.549-3.2c-.446-.257-.39-.707.125-1l5.5-3.175a1.932,1.932,0,0,1,1.738-.072l5.549,3.2c.445.257.389.707-.125,1l-5.5,3.174A1.932,1.932,0,0,1,370.658,185.71Z" transform="translate(-325.965 -163.351)"/><path class="l" d="M412.56,209.9l-5.549-3.2c-.446-.257-.39-.707.125-1l5.5-3.175a1.932,1.932,0,0,1,1.738-.072l5.549,3.2c.446.257.39.707-.125,1l-5.5,3.174A1.93,1.93,0,0,1,412.56,209.9Z" transform="translate(-332.951 -167.385)"/><path class="l" d="M422.844,215.839l-5.549-3.2c-.446-.257-.39-.706.124-1l5.5-3.174a1.933,1.933,0,0,1,1.738-.072l5.549,3.2c.445.258.389.707-.125,1l-5.5,3.175A1.932,1.932,0,0,1,422.844,215.839Z" transform="translate(-334.666 -168.375)"/><path class="l" d="M433.128,221.776l-5.549-3.2c-.445-.257-.389-.707.125-1l5.5-3.174a1.932,1.932,0,0,1,1.738-.072l5.549,3.2c.446.258.39.707-.124,1l-5.5,3.174A1.932,1.932,0,0,1,433.128,221.776Z" transform="translate(-336.381 -169.365)"/><path class="l" d="M443.411,227.714l-5.549-3.2c-.446-.258-.39-.707.125-1l5.5-3.175a1.932,1.932,0,0,1,1.738-.072l5.549,3.2c.446.257.39.707-.125,1l-5.5,3.174A1.93,1.93,0,0,1,443.411,227.714Z" transform="translate(-338.095 -170.355)"/><path class="l" d="M453.7,233.651l-5.549-3.2c-.446-.257-.39-.707.125-1l5.5-3.174a1.932,1.932,0,0,1,1.738-.072l5.549,3.2c.445.257.389.707-.125,1l-5.5,3.175A1.932,1.932,0,0,1,453.7,233.651Z" transform="translate(-339.81 -171.345)"/><path class="l" d="M463.979,239.588l-5.549-3.2c-.445-.257-.389-.707.125-1l5.5-3.174a1.932,1.932,0,0,1,1.738-.073l5.549,3.2c.446.257.39.707-.124,1l-5.5,3.175A1.932,1.932,0,0,1,463.979,239.588Z" transform="translate(-341.525 -172.335)"/><path class="l" d="M474.263,245.526l-5.549-3.2c-.446-.257-.389-.707.125-1l5.5-3.175a1.932,1.932,0,0,1,1.738-.072l5.549,3.2c.446.257.39.707-.125,1l-5.5,3.174A1.932,1.932,0,0,1,474.263,245.526Z" transform="translate(-343.239 -173.325)"/><path class="l" d="M484.546,251.463l-5.549-3.2c-.446-.257-.39-.707.125-1l5.5-3.174a1.93,1.93,0,0,1,1.738-.072l5.549,3.2c.445.257.389.707-.125,1l-5.5,3.175A1.932,1.932,0,0,1,484.546,251.463Z" transform="translate(-344.954 -174.315)"/><path class="l" d="M494.83,257.4l-5.549-3.2c-.446-.258-.39-.707.124-1l5.5-3.174a1.933,1.933,0,0,1,1.738-.073l5.549,3.2c.445.257.389.707-.125,1l-5.5,3.175A1.932,1.932,0,0,1,494.83,257.4Z" transform="translate(-346.669 -175.305)"/><path class="l" d="M396.862,189.279l-5.549-3.2c-.445-.257-.389-.707.125-1l5.5-3.174a1.93,1.93,0,0,1,1.738-.073l5.549,3.2c.446.257.39.707-.125,1l-5.5,3.175A1.932,1.932,0,0,1,396.862,189.279Z" transform="translate(-330.334 -163.946)"/><path class="l" d="M386.629,183.371l-5.549-3.2c-.446-.257-.39-.707.124-1l5.5-3.174a1.932,1.932,0,0,1,1.738-.073l5.549,3.2c.445.258.389.707-.125,1l-5.5,3.175A1.932,1.932,0,0,1,386.629,183.371Z" transform="translate(-328.628 -162.961)"/><path class="l" d="M376.4,177.463l-5.549-3.2c-.445-.257-.389-.707.125-1l5.5-3.175a1.932,1.932,0,0,1,1.738-.072l5.549,3.2c.446.257.39.707-.125,1l-5.5,3.174A1.93,1.93,0,0,1,376.4,177.463Z" transform="translate(-326.921 -161.976)"/><path class="l" d="M366.164,171.556l-5.549-3.2c-.446-.258-.39-.707.124-1l5.5-3.175a1.93,1.93,0,0,1,1.737-.072l5.549,3.2c.445.257.389.706-.125,1l-5.5,3.174A1.932,1.932,0,0,1,366.164,171.556Z" transform="translate(-325.215 -160.991)"/><path class="l" d="M376.687,165.906l-5.549-3.2c-.446-.258-.39-.707.125-1l1.817-1.049a1.93,1.93,0,0,1,1.738-.073l5.549,3.2c.446.257.389.707-.125,1l-1.817,1.049A1.932,1.932,0,0,1,376.687,165.906Z" transform="translate(-326.97 -160.404)"/><path class="l" d="M390.04,173.615l-5.549-3.2c-.445-.257-.389-.707.125-1l1.817-1.049a1.932,1.932,0,0,1,1.738-.072l5.549,3.2c.446.258.39.707-.124,1l-1.818,1.049A1.932,1.932,0,0,1,390.04,173.615Z" transform="translate(-329.196 -161.689)"/><path class="l" d="M400.229,179.5l-5.549-3.2c-.446-.257-.389-.707.125-1l1.817-1.05a1.932,1.932,0,0,1,1.738-.072l5.549,3.2c.446.257.39.707-.125,1l-1.817,1.049A1.932,1.932,0,0,1,400.229,179.5Z" transform="translate(-330.895 -162.67)"/><path class="l" d="M410.42,185.382l-5.549-3.2c-.446-.257-.39-.707.125-1l1.817-1.05a1.932,1.932,0,0,1,1.738-.072l5.549,3.2c.446.257.39.706-.125,1l-1.817,1.049A1.932,1.932,0,0,1,410.42,185.382Z" transform="translate(-332.594 -163.651)"/><path class="l" d="M420.609,191.265l-5.549-3.2c-.446-.257-.39-.707.125-1L417,186.009a1.93,1.93,0,0,1,1.738-.072l5.549,3.2c.446.257.39.707-.125,1l-1.817,1.049A1.93,1.93,0,0,1,420.609,191.265Z" transform="translate(-334.293 -164.632)"/><path class="l" d="M477.5,224.109l-5.549-3.2c-.446-.258-.39-.707.124-1l1.818-1.05a1.932,1.932,0,0,1,1.738-.072l5.549,3.2c.445.257.389.707-.125,1l-1.817,1.049A1.932,1.932,0,0,1,477.5,224.109Z" transform="translate(-343.779 -170.108)"/><path class="l" d="M487.688,229.993l-5.549-3.2c-.445-.257-.389-.707.125-1l1.817-1.05a1.932,1.932,0,0,1,1.738-.072l5.55,3.2c.445.257.389.706-.125,1l-1.817,1.049A1.932,1.932,0,0,1,487.688,229.993Z" transform="translate(-345.478 -171.089)"/><path class="l" d="M497.878,235.876l-5.55-3.2c-.445-.257-.389-.707.125-1l1.817-1.05a1.932,1.932,0,0,1,1.738-.072l5.549,3.2c.446.257.39.707-.124,1l-1.818,1.049A1.931,1.931,0,0,1,497.878,235.876Z" transform="translate(-347.177 -172.07)"/><path class="l" d="M508.068,241.759l-5.549-3.2c-.445-.257-.389-.707.125-1l1.817-1.049a1.93,1.93,0,0,1,1.738-.072l5.549,3.2c.446.258.39.707-.124,1l-1.818,1.049A1.93,1.93,0,0,1,508.068,241.759Z" transform="translate(-348.876 -173.051)"/><path class="l" d="M407.146,195.216l-5.549-3.2c-.446-.257-.39-.707.125-1l5.5-3.174a1.935,1.935,0,0,1,1.738-.072l5.549,3.2c.446.257.39.707-.125,1l-5.5,3.175A1.932,1.932,0,0,1,407.146,195.216Z" transform="translate(-332.048 -164.936)"/><path class="l" d="M417.429,201.154l-5.549-3.2c-.446-.258-.39-.707.124-1l5.5-3.175a1.93,1.93,0,0,1,1.737-.072l5.55,3.2c.445.257.389.707-.125,1l-5.5,3.174A1.932,1.932,0,0,1,417.429,201.154Z" transform="translate(-333.763 -165.926)"/><path class="l" d="M427.713,207.091l-5.549-3.2c-.445-.257-.389-.707.125-1l5.5-3.175a1.932,1.932,0,0,1,1.738-.072l5.549,3.2c.446.257.39.707-.124,1l-5.5,3.175A1.932,1.932,0,0,1,427.713,207.091Z" transform="translate(-335.478 -166.916)"/><path class="l" d="M438,213.028l-5.549-3.2c-.446-.257-.39-.707.125-1l5.5-3.174a1.932,1.932,0,0,1,1.738-.072l5.549,3.2c.446.258.39.707-.125,1l-5.5,3.175A1.932,1.932,0,0,1,438,213.028Z" transform="translate(-337.192 -167.906)"/><path class="l" d="M448.28,218.966l-5.549-3.2c-.446-.257-.39-.707.125-1l5.5-3.174a1.932,1.932,0,0,1,1.738-.072l5.549,3.2c.445.257.389.707-.125,1l-5.5,3.174A1.933,1.933,0,0,1,448.28,218.966Z" transform="translate(-338.907 -168.896)"/><path class="l" d="M458.564,224.9l-5.55-3.2c-.445-.257-.389-.707.125-1l5.5-3.175a1.932,1.932,0,0,1,1.738-.072l5.549,3.2c.446.257.39.706-.124,1l-5.5,3.174A1.932,1.932,0,0,1,458.564,224.9Z" transform="translate(-340.622 -169.886)"/><path class="l" d="M468.848,230.84l-5.549-3.2c-.446-.257-.389-.706.125-1l5.5-3.174a1.932,1.932,0,0,1,1.738-.072l5.549,3.2c.446.257.39.707-.125,1l-5.5,3.175A1.932,1.932,0,0,1,468.848,230.84Z" transform="translate(-342.336 -170.876)"/><path class="l" d="M479.132,236.777l-5.549-3.2c-.446-.257-.39-.707.125-1l5.5-3.174a1.932,1.932,0,0,1,1.738-.072l5.549,3.2c.445.257.389.707-.125,1l-5.5,3.175A1.932,1.932,0,0,1,479.132,236.777Z" transform="translate(-344.051 -171.866)"/><path class="l" d="M489.415,242.715l-5.549-3.2c-.446-.257-.39-.707.124-1l5.5-3.175a1.932,1.932,0,0,1,1.738-.072l5.55,3.2c.445.258.389.707-.125,1l-5.5,3.174A1.932,1.932,0,0,1,489.415,242.715Z" transform="translate(-345.766 -172.856)"/><path class="l" d="M346.193,194.7l-16.342-9.434c-.446-.257-.39-.707.124-1l5.5-3.174a1.933,1.933,0,0,1,1.738-.073l16.341,9.435c.446.257.39.707-.124,1l-5.5,3.175A1.931,1.931,0,0,1,346.193,194.7Z" transform="translate(-320.086 -163.812)"/><path class="l" d="M472.53,267.643l-16.342-9.434c-.445-.258-.389-.707.125-1l5.5-3.174a1.933,1.933,0,0,1,1.738-.073l16.342,9.435c.446.257.39.707-.125,1l-5.5,3.174A1.932,1.932,0,0,1,472.53,267.643Z" transform="translate(-341.151 -175.974)"/><path class="l" d="M433.564,258.139l-5.549-3.2c-.445-.258-.389-.707.125-1l6.549-3.781a1.932,1.932,0,0,1,1.738-.072l5.549,3.2c.446.257.39.707-.125,1l-6.549,3.781A1.932,1.932,0,0,1,433.564,258.139Z" transform="translate(-336.453 -175.327)"/><path class="l" d="M358.218,214.639l-8.874-5.124c-.446-.257-.39-.707.125-1l6.549-3.781a1.93,1.93,0,0,1,1.738-.073l8.874,5.124c.445.257.389.707-.125,1l-6.549,3.781A1.932,1.932,0,0,1,358.218,214.639Z" transform="translate(-323.336 -167.753)"/><path class="l" d="M422.99,252.035l-8.874-5.124c-.446-.257-.39-.707.125-1l6.549-3.781a1.93,1.93,0,0,1,1.738-.072l8.874,5.124c.445.257.389.707-.125,1l-6.549,3.781A1.932,1.932,0,0,1,422.99,252.035Z" transform="translate(-334.136 -173.989)"/><path class="l" d="M373.055,223.205l-8.874-5.124c-.445-.257-.389-.707.125-1l6.55-3.781a1.93,1.93,0,0,1,1.738-.073l8.874,5.124c.445.257.389.707-.125,1l-6.549,3.781A1.932,1.932,0,0,1,373.055,223.205Z" transform="translate(-325.81 -169.182)"/><path class="l" d="M372.726,213.3l38.582,22.275a.529.529,0,0,1,0,1l-6.679,3.855a1.913,1.913,0,0,1-1.733,0l-38.583-22.275Z" transform="translate(-325.882 -169.223)"/><path class="l" d="M462.585,270.524l6.18,3.569c.365.211.319.579-.1.822l-2.679,1.547a1.585,1.585,0,0,1-1.425.059l-6.18-3.568c-.366-.211-.32-.579.1-.823l2.68-1.547A1.584,1.584,0,0,1,462.585,270.524Z" transform="translate(-341.525 -178.741)"/><path class="l" d="M452.216,264.537l6.18,3.568c.365.211.319.579-.1.822l-2.679,1.547a1.585,1.585,0,0,1-1.425.059l-6.18-3.569c-.366-.211-.32-.579.1-.822l2.68-1.547A1.582,1.582,0,0,1,452.216,264.537Z" transform="translate(-339.796 -177.743)"/><path class="l" d="M441.932,258.6l6.18,3.569c.366.211.32.579-.1.822l-2.68,1.547a1.58,1.58,0,0,1-1.424.059l-6.181-3.568c-.365-.211-.319-.579.1-.822l2.679-1.547A1.584,1.584,0,0,1,441.932,258.6Z" transform="translate(-338.081 -176.753)"/><path class="l" d="M457.894,261.258l6.181,3.568c.365.212.319.579-.1.823l-2.679,1.547a1.585,1.585,0,0,1-1.425.059l-6.18-3.569c-.366-.211-.32-.579.1-.822l2.68-1.547A1.583,1.583,0,0,1,457.894,261.258Z" transform="translate(-340.743 -177.196)"/></g></g><g transform="translate(69.697 107.339)"><path class="n" d="M310.74,166.464s.412,8.493,1.058,14.2,14.394-4.384,14.394-4.384v-6.5Z" transform="translate(-293.481 -156.2)"/><g transform="translate(7.242 3.363)"><path class="o" d="M319.5,292.591c.207.517,3.769,4.852,7.33,5.936a8.175,8.175,0,0,0,3.272.452,1.078,1.078,0,0,0,.877-1.437,13.535,13.535,0,0,0-6.834-7.533C318.106,287.015,319.5,292.591,319.5,292.591Z" transform="translate(-302.16 -180.015)"/><path class="o" d="M317.1,295.283a29.485,29.485,0,0,1,1.756,5.782c.252,1.606-.63,3.691-1.356,5.075a1.482,1.482,0,0,1-2.31.4,8.57,8.57,0,0,1-2.891-5.526c-.413-4.44,0-5.214,0-5.214Z" transform="translate(-300.953 -181.042)"/><path class="p" d="M307.764,230.015a84.385,84.385,0,0,0,0,11.795c.465,6.194,2.128,35.164,2.437,42.132,0,0-.155,2.11,3.93,1.646s3.756-2.807,3.756-2.807,5.736-.078,5.917-3.458,5.875-40.377,5.875-53.677Z" transform="translate(-300.192 -169.43)"/><path class="q" d="M336.16,196.14l2.811,4.353,9.66,11.668a2.167,2.167,0,0,1-1.535,1.367c-.939.222-9.064-7.531-12.574-10.932a2.693,2.693,0,0,1-.37-3.424Z" transform="translate(-304.551 -164.511)"/><path class="r" d="M330.072,174.7s4.464-.116,6.019,6.336,2.77,14.531,1.417,15.2c-4.057,2.015-6.625-.343-6.625-.343Z" transform="translate(-303.946 -160.936)"/><path class="r" d="M326.97,174.971a3.659,3.659,0,0,0-2.41-.132c-3.8,1.092-18.1,5.29-20.462,7.3-2.723,2.327,4.084,15.407,3.986,19.7s-.582,9.344-.961,14.006-.892,7.218,2.921,9.2a15,15,0,0,0,15.2-1.64c4.874-3.713,3.99-6.254,3.786-8.95s-1.862-14.355-1.718-17.664a12.519,12.519,0,0,0,2.989-3.434c1.272-2.17-.975-6.157-1.907-8.749s.527-5.557.237-7.673A2.4,2.4,0,0,0,326.97,174.971Z" transform="translate(-299.508 -160.935)"/><path class="g" d="M324.032,179.651c.3,2.356-1.859,4.573-4.826,4.953s-5.617-1.221-5.919-3.576,1.86-4.574,4.827-4.954S323.73,177.3,324.032,179.651Z" transform="translate(-301.142 -161.156)"/><path class="q" d="M322.808,180.093c.216,1.684-1.329,3.269-3.45,3.541s-4.015-.872-4.23-2.556,1.329-3.269,3.45-3.541S322.592,178.41,322.808,180.093Z" transform="translate(-301.451 -161.402)"/><path class="q" d="M321.016,173.709s-2.581-2.123-3.088-1.047-.925,5.69-.925,5.69l5.126,1.377-.777-4.676S322.378,174.183,321.016,173.709Z" transform="translate(-301.767 -160.545)"/><path class="q" d="M328.374,166.288a7.655,7.655,0,1,1-7.19-8.093A7.654,7.654,0,0,1,328.374,166.288Z" transform="translate(-301.112 -158.182)"/><path class="s" d="M317.658,174.254c-.046.241-.089.5-.131.763.515,2.663,4.5,3.83,4.5,3.83l-.588-3.539s.482-.409.346-.82C320.21,173.991,318.225,173.551,317.658,174.254Z" transform="translate(-301.854 -160.801)"/><path class="q" d="M328.374,166.288a7.655,7.655,0,1,1-7.19-8.093A7.654,7.654,0,0,1,328.374,166.288Z" transform="translate(-301.112 -158.182)"/><path class="q" d="M299.63,206.255l.857,20.484,2.995.309,1.949-18.44Z" transform="translate(-298.87 -166.197)"/><path class="n" d="M310.684,201.391c-.991-4.375-2.949-14.038-2.949-14.038l-.837,9.612c.966,2.851,1.795,5.467,1.761,6.984-.058,2.517-.249,5.3-.473,8.11v.009S311.675,205.765,310.684,201.391Z" transform="translate(-300.082 -163.046)"/><path class="r" d="M303.881,183.129s-2.395.915-3.75,8.27-2.369,14.724.047,15.673,4.435,1.664,5.145-.3,1.151-11.447,1.24-14.855S306.782,183.8,303.881,183.129Z" transform="translate(-298.718 -162.341)"/><path class="q" d="M350.059,214.3a6.426,6.426,0,0,1,2.234,1.5,14.537,14.537,0,0,1,1.527,2.05c.746,1.112,1.375,3.518.921,3.817s-3.056-4.027-3.476-3.021,0,1.936-.534,1.952-2.407-4.349-3.878-5.7S350.059,214.3,350.059,214.3Z" transform="translate(-306.696 -167.504)"/><path class="t" d="M319.953,285.168a11.745,11.745,0,0,0,1.639-.169h0l1.123-45.032Z" transform="translate(-302.258 -171.818)"/></g><g transform="translate(0 63.166)"><path class="u" d="M310.695,259.174l-1.593-2.08-16.757-9.7a2.33,2.33,0,0,1-.971-1.861l.014-13.719-.963-1.258.9-.524v0a.611.611,0,0,1,.657.037l18.991,10.995a2.332,2.332,0,0,1,.971,1.862l-.016,14.94a.847.847,0,0,1-.356.8h0Z" transform="translate(-290.093 -229.952)"/><path class="v" d="M299.107,251.307l-1.19-.689-6.535-11.352.007-7.454-.963-1.258.9-.524v0a.611.611,0,0,1,.657.037l18.991,10.995a1.969,1.969,0,0,1,.716.837Z" transform="translate(-290.093 -229.952)"/><path class="v" d="M290.852,231.112l-.427-.558.9-.524v0a.611.611,0,0,1,.657.037l.335.193Z" transform="translate(-290.093 -229.952)"/><path class="u" d="M314.908,243.433a2.437,2.437,0,0,1,.793,1.6l-1.857,1.071-.889-1.544Z" transform="translate(-293.85 -232.2)"/><path class="w" d="M310.008,241.692l-18.99-11c-.537-.311-.974.018-.975.735l-.016,14.941a2.332,2.332,0,0,0,.971,1.861l18.991,10.995c.537.312.973-.017.974-.734l.017-14.941A2.33,2.33,0,0,0,310.008,241.692Z" transform="translate(-290.027 -230.057)"/></g><path class="q" d="M300.55,230.135a46.388,46.388,0,0,0-.672,6.313c.119,1.532.939,4.057,1.562,4s.02-6.158,1.113-5.55,1.207,1.652,1.7,1.283-.862-5.587-.5-7.849S300.55,230.135,300.55,230.135Z" transform="translate(-291.667 -166.402)"/><path class="s" d="M324.689,167.369c3.84,1.364,4.587.532,4.624.487.036-.231.063-.465.077-.7a7.631,7.631,0,0,0-.255-2.446l-9.963-1.345A10.861,10.861,0,0,0,324.689,167.369Z" transform="translate(-294.887 -155.683)"/><path class="n" d="M328.259,157.989c-.9-.776-4.171-4.61-10.021-3.706-3.656.565-6.738,3.06-7.421,8.749a13.075,13.075,0,0,0,3.538,10.4,3.087,3.087,0,0,0,.416-.211c1.465-.964,1.623-1.494,1.623-1.5l.323-2.9a.811.811,0,0,0-.73-.8,1.459,1.459,0,0,1-1.072-.653,1.707,1.707,0,0,1,1.228-2.876,1.291,1.291,0,0,0,1.342-.955.687.687,0,0,1,.9-.467c1.912.692,6.623,2.183,9.655,1.324C331.916,163.289,329.163,158.765,328.259,157.989Z" transform="translate(-293.479 -154.146)"/><path class="g" d="M326.072,172.191l2.341-.643a5.648,5.648,0,0,1-2.75,2.207c-1.632.448-1.886-.933-1.886-.933Z" transform="translate(-295.655 -157.048)"/><path class="x" d="M305.066,237.485l-2-1.142.749,1.223,1.009.373Z" transform="translate(-292.202 -167.851)"/></g><g transform="translate(116.946 135.219)"><g transform="translate(1.896)"><path class="l" d="M368.306,313.2s-2.517-1.269-4.063.621-3.756,6.352-3.824,9.367,2.386,2.811,3.845,2.1,5.721-6.9,5.98-8.107a4.21,4.21,0,0,0-.715-3.171C369.118,313.684,368.306,313.2,368.306,313.2Z" transform="translate(-350.909 -208.476)"/><path class="y" d="M369.589,312.431l.117,2.608a1.479,1.479,0,0,1-.737,1.357,2.9,2.9,0,0,1-1.942.3c-1.9-.3-2.065-.847-2.2-3.453S369.589,312.431,369.589,312.431Z" transform="translate(-351.643 -208.317)"/><g transform="translate(0 46.264)"><path class="l" d="M357.249,307.179s-2.517-1.269-4.063.621-3.756,6.352-3.824,9.367,2.387,2.811,3.845,2.1,5.721-6.9,5.979-8.108a4.208,4.208,0,0,0-.715-3.17C358.061,307.667,357.249,307.179,357.249,307.179Z" transform="translate(-349.065 -253.736)"/><path class="y" d="M358.532,306.414l.117,2.608a1.479,1.479,0,0,1-.737,1.357,2.907,2.907,0,0,1-1.942.3c-1.9-.3-2.065-.847-2.2-3.454S358.532,306.414,358.532,306.414Z" transform="translate(-349.8 -253.578)"/><path class="z" d="M380.2,248.086c-.745-12.121-13.126,1.783-13.126,1.783l-8.475,8.307-7.631,8.383a7.523,7.523,0,0,0-1.895,6.043l3.086,23.506a2.311,2.311,0,0,0,2.317,2.008,7.985,7.985,0,0,0,1.144-.1,2.872,2.872,0,0,0,2.551-3.047l-.565-21.985,16.026-9.661S380.943,260.208,380.2,248.086Z" transform="translate(-349.006 -243.126)"/></g><path class="z" d="M391.255,253.629c-.745-12.121-13.126,1.783-13.126,1.783l-8.475,8.306-7.631,8.383a7.522,7.522,0,0,0-1.895,6.043l3.086,23.506a2.31,2.31,0,0,0,2.317,2.008,7.872,7.872,0,0,0,1.144-.1,2.872,2.872,0,0,0,2.551-3.047l-.565-21.986,16.026-9.661S392,265.75,391.255,253.629Z" transform="translate(-350.85 -197.786)"/><path class="aa" d="M385.081,207.657c9.388,3.891,9.2,9.441,9.2,9.441s-1.839,20.343-1.211,33.93c.262,5.679-30.176,6.113-25.637-9.04,5.352-17.866,3.346-32.329,5.852-34.51S382.653,206.65,385.081,207.657Z" transform="translate(-352.002 -190.723)"/><path class="q" d="M390.437,212.858c-.491,1.906-2.988,2.91-5.578,2.243s-4.29-2.753-3.8-4.659,2.988-2.911,5.578-2.243S390.927,210.952,390.437,212.858Z" transform="translate(-354.336 -191.004)"/><path class="g" d="M386.353,215.664a6.8,6.8,0,0,1-1.7-.218c-2.825-.727-4.673-3.062-4.121-5.205a3.588,3.588,0,0,1,2.268-2.391,6.239,6.239,0,0,1,3.855-.175c2.825.728,4.675,3.063,4.123,5.205h0C390.341,214.587,388.509,215.664,386.353,215.664Zm-1.41-7.314a4.833,4.833,0,0,0-1.8.332,2.719,2.719,0,0,0-1.735,1.782c-.428,1.663,1.132,3.508,3.477,4.112s4.6-.257,5.031-1.921-1.132-3.507-3.478-4.112A5.989,5.989,0,0,0,384.944,208.35Z" transform="translate(-354.247 -190.914)"/><path class="q" d="M384.172,207.045a23.008,23.008,0,0,1-.081,3.351c-.052.935,3.223,1.808,4.07.962s.508-1.727.711-4.909S384.172,207.045,384.172,207.045Z" transform="translate(-354.856 -190.534)"/><path class="s" d="M388.871,206.7s-.807,2.951-4.781,4.082l.06-2.681Z" transform="translate(-354.856 -190.789)"/><path class="q" d="M390,196.622a7.226,7.226,0,1,1-8.8-5.187A7.226,7.226,0,0,1,390,196.622Z" transform="translate(-353.47 -188.205)"/><path class="s" d="M384.658,199.845s-3.978,1.7-6.733,1.724-2.148-2.287-2.148-2.287l8.178-1.182Z" transform="translate(-353.46 -189.355)"/><path class="ab" d="M376.475,198.545a12.9,12.9,0,0,1,6.506-.858,3.187,3.187,0,0,1,1.837,1.092,1.079,1.079,0,0,0,.556.4c.539.122,1.422-2.115,2.47-2.166s1.747.691.888,2.067-.569,2.916-.174,3.136,4.589-2.991.89-10.318-13.094-3.381-14.555-1.9c0,0-1.54,1.341-2.791.147C372.1,190.151,370.7,200.664,376.475,198.545Z" transform="translate(-352.832 -187.605)"/><path class="q" d="M391.019,236.467v5.5a2.238,2.238,0,0,1-.731,1.655L379,253.915l1.283,1.962,14.849-10.2a3.033,3.033,0,0,0,1.235-2.137l1.072-10.2Z" transform="translate(-354.007 -195.23)"/><path class="aa" d="M397.732,215.958s3.426,5.152,4.7,18.714c0,0-5.852,1.893-9.173.818S397.732,215.958,397.732,215.958Z" transform="translate(-356.247 -192.332)"/><path class="ac" d="M392.391,223.776a95.449,95.449,0,0,0-1.417,10.552,2.152,2.152,0,0,0,1.417,2.079h0Z" transform="translate(-356.004 -193.636)"/></g><g transform="translate(1.805 54.58)"><path class="l" d="M382.446,264.642l-2.5-.33-16.111-9.3a2.239,2.239,0,0,0-2.015.083l-11.417,6.589-1.509-.2v1.5h0a.587.587,0,0,0,.347.529L367.5,274.057a2.237,2.237,0,0,0,2.015-.084l12.433-7.175a.814.814,0,0,0,.493-.677h0Z" transform="translate(-348.898 -253.39)"/><path class="m" d="M370.34,259.424l-1.145-.661H356.611l-6.2,3.58-1.509-.2v1.5h0a.587.587,0,0,0,.347.529L367.5,274.717a1.9,1.9,0,0,0,1.04.195Z" transform="translate(-348.898 -254.049)"/><path class="ad" d="M349.568,262.908l-.67-.088v1.5h0a.587.587,0,0,0,.347.529l.322.186Z" transform="translate(-348.898 -254.726)"/><path class="ae" d="M371.449,277.478a2.342,2.342,0,0,0,1.712-.106v-2.557h-1.712Z" transform="translate(-352.658 -256.726)"/><path class="g" d="M367.5,272.272,349.246,261.73c-.517-.3-.452-.819.144-1.163l12.433-7.176a2.239,2.239,0,0,1,2.015-.083L382.1,263.849c.517.3.452.819-.145,1.163l-12.433,7.176A2.239,2.239,0,0,1,367.5,272.272Z" transform="translate(-348.897 -253.106)"/><path class="f" d="M367.761,271.444l-15.182-8.765c-.429-.248-.375-.681.121-.967l6.662-3.746a1.86,1.86,0,0,1,1.676-.069l15.182,8.765c.43.247.376.681-.12.967l-6.663,3.746A1.861,1.861,0,0,1,367.761,271.444Z" transform="translate(-349.463 -253.877)"/></g><path class="q" d="M365.2,252.906l-.188,1.26a9.311,9.311,0,0,0,.082,3.231l.225,1.11a1.563,1.563,0,0,0,1.251,1.227h0a.861.861,0,0,0,1.01-.752l.3-2.694s.689.9,1.022.9-.372-2.7-1.124-4.224S365.2,252.906,365.2,252.906Z" transform="translate(-349.762 -198.387)"/><path class="q" d="M371.209,228.242l-1.959,3.878a7.591,7.591,0,0,0-.8,2.943l-.851,13.263-2.578-.061-1.17-14.895a5.485,5.485,0,0,1,.067-1.377l1.336-7.553Z" transform="translate(-349.583 -193.747)"/><g transform="translate(0 46.682)"><path class="l" d="M366.589,271.7l-1.531-2-16.1-9.322a2.242,2.242,0,0,1-.933-1.788l.014-13.181-.926-1.208.87-.5v0a.587.587,0,0,1,.632.037L366.861,254.3a2.241,2.241,0,0,1,.932,1.788l-.015,14.356a.813.813,0,0,1-.342.765h0Z" transform="translate(-346.795 -243.628)"/><path class="m" d="M355.455,264.146l-1.143-.662-6.28-10.907.007-7.163-.926-1.208.87-.5v0a.587.587,0,0,1,.632.037L366.861,254.3a1.9,1.9,0,0,1,.687.8Z" transform="translate(-346.795 -243.628)"/><path class="ad" d="M347.524,244.743l-.411-.537.87-.5v0a.587.587,0,0,1,.632.037l.322.186Z" transform="translate(-346.795 -243.628)"/><path class="ae" d="M370.637,256.58a2.339,2.339,0,0,1,.762,1.537l-1.783,1.029-.854-1.484Z" transform="translate(-350.404 -245.788)"/><path class="g" d="M365.929,254.908l-18.246-10.563c-.516-.3-.935.017-.936.706l-.016,14.355a2.24,2.24,0,0,0,.933,1.788l18.246,10.564c.516.3.935-.017.936-.707l.016-14.355A2.242,2.242,0,0,0,365.929,254.908Z" transform="translate(-346.731 -243.729)"/></g><path class="q" d="M379.332,259.994l-.293.6a4.051,4.051,0,0,1-1.525,1.691l-1.812,1.117a1.8,1.8,0,0,1-1.85.042l-.062-.037a1.09,1.09,0,0,1-.154-1.676l1.894-1.946s-1.064.815-1.362.487c-.218-.241,1.032-1.415,1.992-1.453a3.785,3.785,0,0,0,1.889-.792Z" transform="translate(-351.164 -199.347)"/><path class="aa" d="M372.823,207.677s-6.943,7.554-9.743,14.485a14.175,14.175,0,0,0,8.185,5.956C377.077,229.8,372.823,207.677,372.823,207.677Z" transform="translate(-349.457 -190.951)"/><path class="ac" d="M371.029,229.495l1.126-10.871L369.5,228.809A15.472,15.472,0,0,0,371.029,229.495Z" transform="translate(-350.528 -192.777)"/><path class="g" d="M380.641,205.744l-1.866-.512a4.5,4.5,0,0,0,2.191,1.758c1.3.357,1.5-.743,1.5-.743Z" transform="translate(-352.074 -190.544)"/></g><g transform="translate(0 198.689)"><path class="b" d="M230.375,319.362l-16.824-9.788c-1.42-.82-1.242-2.251.4-3.2l16.036-9.343a6.159,6.159,0,0,1,5.539-.23l16.824,9.789c1.42.82,1.242,2.251-.4,3.2l-16.036,9.343A6.155,6.155,0,0,1,230.375,319.362Z" transform="translate(-207.419 -269.19)"/><path class="c" d="M257.435,285.659h0v-4.227l-22.446-.012.155,0a7.719,7.719,0,0,0-6.947.288l.665-.277-22.467-.013v4.511a2.014,2.014,0,0,0,1.192,1.861l21.1,12.276a7.724,7.724,0,0,0,6.948-.287l20.11-11.717A2.75,2.75,0,0,0,257.435,285.659Z" transform="translate(-206.385 -266.6)"/><path class="c" d="M231.92,280.727a8.006,8.006,0,0,0-3.724.977l.665-.277-22.467-.013v4.511a2.014,2.014,0,0,0,1.192,1.862l21.1,12.276a6.29,6.29,0,0,0,3.225.689Z" transform="translate(-206.385 -266.602)"/><path class="e" d="M208.936,281.552h-2.542v4.511a2.014,2.014,0,0,0,1.192,1.862l1.35.779Z" transform="translate(-206.385 -266.739)"/><path class="e" d="M233.684,303a7.912,7.912,0,0,0,5.553-.063V297.03h-5.553Z" transform="translate(-210.936 -269.32)"/><path class="af" d="M228.685,292.762l-21.1-12.276c-1.78-1.028-1.557-2.824.5-4.011L228.2,264.757a7.72,7.72,0,0,1,6.947-.288l21.1,12.276c1.781,1.027,1.557,2.824-.5,4.01l-20.11,11.717A7.724,7.724,0,0,1,228.685,292.762Z" transform="translate(-206.384 -263.775)"/><g transform="translate(19.564 6.808)"><path class="g" d="M236.69,277.645l-6.205-3.608a.915.915,0,0,1,0-1.733,3.317,3.317,0,0,1,3,0l6.205,3.607a.916.916,0,0,1,0,1.734A3.322,3.322,0,0,1,236.69,277.645Z" transform="translate(-229.863 -271.945)"/></g><g transform="translate(31.022 13.465)"><path class="g" d="M248,284.251l-3.766-2.223a.915.915,0,0,1,0-1.733,3.314,3.314,0,0,1,3,0l3.767,2.222a.916.916,0,0,1,0,1.734A3.322,3.322,0,0,1,248,284.251Z" transform="translate(-243.614 -279.935)"/></g><g transform="translate(13.304 10.41)"><path class="g" d="M226.739,280.583l-3.766-2.222a.915.915,0,0,1,0-1.734,3.32,3.32,0,0,1,3,0l3.767,2.223a.915.915,0,0,1,0,1.733A3.317,3.317,0,0,1,226.739,280.583Z" transform="translate(-222.351 -276.268)"/></g></g><g transform="translate(158.566 31.473)"><path class="g" d="M443.6,82.829l-7.449-4.3a2.129,2.129,0,0,1-.909-2.206h0a1.037,1.037,0,0,1,1.594-.761l7.449,4.3a2.129,2.129,0,0,1,.909,2.206h0A1.036,1.036,0,0,1,443.6,82.829Z" transform="translate(-403.101 -65.15)"/><path class="g" d="M464.186,94.715,453.2,88.374a2.131,2.131,0,0,1-.908-2.206h0a1.036,1.036,0,0,1,1.593-.761l10.984,6.342a2.129,2.129,0,0,1,.909,2.206h0A1.037,1.037,0,0,1,464.186,94.715Z" transform="translate(-405.945 -66.791)"/><path class="g" d="M428.015,124.558l-7.449-4.3a2.13,2.13,0,0,1-.908-2.206h0a1.036,1.036,0,0,1,1.593-.761l7.449,4.3a2.129,2.129,0,0,1,.909,2.206h0A1.037,1.037,0,0,1,428.015,124.558Z" transform="translate(-400.503 -72.107)"/><path class="g" d="M446.291,135.109l-10.984-6.341a2.13,2.13,0,0,1-.909-2.206h0a1.037,1.037,0,0,1,1.594-.761l10.984,6.342a2.13,2.13,0,0,1,.908,2.206h0A1.036,1.036,0,0,1,446.291,135.109Z" transform="translate(-402.961 -73.526)"/><path class="g" d="M417.787,76.38l-4.654-2.686a2.132,2.132,0,0,1-.909-2.206h0a1.037,1.037,0,0,1,1.594-.761l4.654,2.686a2.131,2.131,0,0,1,.908,2.206h0A1.036,1.036,0,0,1,417.787,76.38Z" transform="translate(-399.263 -64.343)"/><path class="g" d="M433.085,93.667l-14.219-8.209a2.13,2.13,0,0,1-.908-2.206h0a1.036,1.036,0,0,1,1.593-.761L433.769,90.7a2.129,2.129,0,0,1,.909,2.206h0A1.036,1.036,0,0,1,433.085,93.667Z" transform="translate(-400.22 -66.305)"/><path class="g" d="M420.076,103.065l-4.654-2.687a2.131,2.131,0,0,1-.909-2.206h0a1.037,1.037,0,0,1,1.594-.761l4.654,2.686a2.131,2.131,0,0,1,.909,2.206h0A1.037,1.037,0,0,1,420.076,103.065Z" transform="translate(-399.645 -68.793)"/><path class="g" d="M448.875,153.51l-12.429-7.176a2.129,2.129,0,0,1-.909-2.206h0a1.037,1.037,0,0,1,1.594-.761l12.429,7.176a2.131,2.131,0,0,1,.909,2.206h0A1.037,1.037,0,0,1,448.875,153.51Z" transform="translate(-403.151 -76.455)"/><path class="g" d="M414.965,117.023l-2.987-1.724a2.131,2.131,0,0,1-.909-2.206h0a1.037,1.037,0,0,1,1.594-.761l2.987,1.725a2.131,2.131,0,0,1,.909,2.206h0A1.037,1.037,0,0,1,414.965,117.023Z" transform="translate(-399.071 -71.28)"/><path class="g" d="M412.243,132.36l-3.71-2.141a2.131,2.131,0,0,1-.909-2.206h0a1.037,1.037,0,0,1,1.594-.762l3.71,2.142a2.131,2.131,0,0,1,.909,2.206h0A1.037,1.037,0,0,1,412.243,132.36Z" transform="translate(-398.497 -73.768)"/><path class="g" d="M428.347,141.658l-9.779-5.646a2.129,2.129,0,0,1-.909-2.206h0a1.036,1.036,0,0,1,1.593-.762l9.78,5.647a2.129,2.129,0,0,1,.909,2.206h0A1.037,1.037,0,0,1,428.347,141.658Z" transform="translate(-400.17 -74.734)"/><path class="g" d="M413.844,141.739l-7.032-4.06a2.131,2.131,0,0,1-.909-2.206h0a1.037,1.037,0,0,1,1.594-.761l7.032,4.06a2.131,2.131,0,0,1,.909,2.206h0A1.037,1.037,0,0,1,413.844,141.739Z" transform="translate(-398.209 -75.012)"/><path class="g" d="M463.257,161.85l-4.516-2.607a2.131,2.131,0,0,1-.909-2.206h0a1.037,1.037,0,0,1,1.594-.762l4.516,2.607a2.13,2.13,0,0,1,.909,2.206h0A1.036,1.036,0,0,1,463.257,161.85Z" transform="translate(-406.868 -78.608)"/><path class="g" d="M439.294,114.161l-12.429-7.176a2.13,2.13,0,0,1-.909-2.207h0a1.036,1.036,0,0,1,1.593-.761l12.43,7.176a2.13,2.13,0,0,1,.908,2.206h0A1.036,1.036,0,0,1,439.294,114.161Z" transform="translate(-401.553 -69.894)"/><path class="g" d="M438.806,105.425,417.144,92.918a2.132,2.132,0,0,1-.909-2.206h0a1.037,1.037,0,0,1,1.594-.761l21.662,12.506a2.13,2.13,0,0,1,.909,2.206h0A1.037,1.037,0,0,1,438.806,105.425Z" transform="translate(-399.932 -67.549)"/><path class="g" d="M426.129,115.015,413.7,107.839a2.132,2.132,0,0,1-.909-2.206h0a1.037,1.037,0,0,1,1.594-.761l12.429,7.176a2.129,2.129,0,0,1,.909,2.206h0A1.037,1.037,0,0,1,426.129,115.015Z" transform="translate(-399.358 -70.037)"/><path class="g" d="M452.19,121.607,447.675,119a2.131,2.131,0,0,1-.909-2.206h0a1.036,1.036,0,0,1,1.593-.761l4.516,2.607a2.131,2.131,0,0,1,.909,2.206h0A1.037,1.037,0,0,1,452.19,121.607Z" transform="translate(-405.023 -71.898)"/><path class="g" d="M501.239,116.108,474.5,100.668a2.131,2.131,0,0,1-.909-2.206h0a1.037,1.037,0,0,1,1.594-.761l26.742,15.44a2.13,2.13,0,0,1,.909,2.206h0A1.037,1.037,0,0,1,501.239,116.108Z" transform="translate(-409.495 -68.841)"/><path class="g" d="M425.2,131.385l-14.94-8.626a2.131,2.131,0,0,1-.909-2.206h0a1.037,1.037,0,0,1,1.594-.762l14.94,8.627a2.129,2.129,0,0,1,.909,2.206h0A1.037,1.037,0,0,1,425.2,131.385Z" transform="translate(-398.784 -72.524)"/><path class="g" d="M425.839,72.575l-10.984-6.342a2.131,2.131,0,0,1-.909-2.206h0a1.037,1.037,0,0,1,1.594-.761l10.984,6.342a2.13,2.13,0,0,1,.909,2.206h0A1.037,1.037,0,0,1,425.839,72.575Z" transform="translate(-399.55 -63.1)"/><path class="g" d="M410.356,148.18l-12.721-7.345a2.129,2.129,0,0,1-.909-2.206h0a1.037,1.037,0,0,1,1.594-.762l12.721,7.345a2.131,2.131,0,0,1,.909,2.206h0A1.037,1.037,0,0,1,410.356,148.18Z" transform="translate(-396.679 -75.538)"/></g><g transform="translate(240.648 115.33)"><path class="g" d="M513.9,205.97l-7.449-4.3a2.132,2.132,0,0,1-.909-2.206h0a1.037,1.037,0,0,1,1.594-.761l7.449,4.3a2.132,2.132,0,0,1,.909,2.206h0A1.037,1.037,0,0,1,513.9,205.97Z" transform="translate(-496.905 -169.539)"/><path class="g" d="M518.97,175.079l-14.218-8.209a2.13,2.13,0,0,1-.909-2.206h0a1.037,1.037,0,0,1,1.594-.761l14.218,8.208a2.131,2.131,0,0,1,.909,2.206h0A1.037,1.037,0,0,1,518.97,175.079Z" transform="translate(-496.622 -163.737)"/><path class="g" d="M505.962,184.477l-4.654-2.686a2.132,2.132,0,0,1-.909-2.206h0a1.037,1.037,0,0,1,1.594-.761l4.654,2.687a2.13,2.13,0,0,1,.908,2.206h0A1.036,1.036,0,0,1,505.962,184.477Z" transform="translate(-496.048 -166.224)"/><path class="g" d="M500.851,198.436l-2.987-1.725a2.131,2.131,0,0,1-.909-2.206h0a1.037,1.037,0,0,1,1.594-.761l2.987,1.724a2.13,2.13,0,0,1,.908,2.206h0A1.036,1.036,0,0,1,500.851,198.436Z" transform="translate(-495.474 -168.712)"/><path class="g" d="M525.179,195.573,512.75,188.4a2.13,2.13,0,0,1-.908-2.206h0a1.036,1.036,0,0,1,1.593-.761l12.429,7.175a2.131,2.131,0,0,1,.909,2.206h0A1.037,1.037,0,0,1,525.179,195.573Z" transform="translate(-497.956 -167.326)"/><path class="g" d="M524.692,186.837,503.03,174.331a2.132,2.132,0,0,1-.909-2.206h0a1.037,1.037,0,0,1,1.594-.761l21.663,12.507a2.131,2.131,0,0,1,.909,2.206h0A1.037,1.037,0,0,1,524.692,186.837Z" transform="translate(-496.335 -164.98)"/><path class="g" d="M512.015,196.427l-12.429-7.176a2.131,2.131,0,0,1-.909-2.206h0a1.037,1.037,0,0,1,1.594-.762L512.7,193.46a2.132,2.132,0,0,1,.909,2.207h0A1.037,1.037,0,0,1,512.015,196.427Z" transform="translate(-495.761 -167.468)"/><path class="g" d="M511.082,212.8l-14.94-8.626a2.131,2.131,0,0,1-.909-2.206h0a1.037,1.037,0,0,1,1.594-.761l14.94,8.626a2.131,2.131,0,0,1,.909,2.206h0A1.037,1.037,0,0,1,511.082,212.8Z" transform="translate(-495.186 -169.956)"/></g><g transform="translate(204.349 236.559)"><path class="b" d="M475.348,365.167l-17.5-10.181c-1.477-.852-1.292-2.341.414-3.326l16.678-9.718a6.4,6.4,0,0,1,5.761-.238l17.5,10.181c1.477.852,1.292,2.341-.414,3.326l-16.678,9.718A6.4,6.4,0,0,1,475.348,365.167Z" transform="translate(-452.495 -314.543)"/><path class="ag" d="M502.675,331.106h0V326.88l-22.446-.013.155,0a7.724,7.724,0,0,0-6.948.287l.665-.278-22.466-.013v4.512a2.012,2.012,0,0,0,1.192,1.861l21.1,12.276a7.72,7.72,0,0,0,6.947-.288L500.983,333.5A2.751,2.751,0,0,0,502.675,331.106Z" transform="translate(-451.624 -312.048)"/><path class="ac" d="M477.16,326.174a8.019,8.019,0,0,0-3.724.977l.665-.278-22.466-.012v4.512a2.012,2.012,0,0,0,1.192,1.861l21.1,12.277a6.29,6.29,0,0,0,3.224.689Z" transform="translate(-451.624 -312.049)"/><path class="ah" d="M454.176,327l-2.542,0v4.512a2.012,2.012,0,0,0,1.192,1.861l1.35.78Z" transform="translate(-451.624 -312.187)"/><path class="ah" d="M478.924,348.447a7.921,7.921,0,0,0,5.553-.063v-5.906h-5.553Z" transform="translate(-456.175 -314.768)"/><path class="c" d="M473.925,338.209l-21.1-12.276c-1.781-1.028-1.557-2.824.5-4.011l20.11-11.717a7.724,7.724,0,0,1,6.948-.288l21.1,12.276c1.78,1.028,1.557,2.824-.5,4.011l-20.111,11.717A7.722,7.722,0,0,1,473.925,338.209Z" transform="translate(-451.623 -309.223)"/><g transform="translate(19.405 7.449)"><path class="ai" d="M481.739,323.862l-6.205-3.607a.915.915,0,0,1,0-1.734,3.32,3.32,0,0,1,3,0l6.205,3.608a.915.915,0,0,1,0,1.733A3.315,3.315,0,0,1,481.739,323.862Z" transform="translate(-474.912 -318.162)"/></g><g transform="translate(30.863 14.107)"><path class="g" d="M493.051,330.468l-3.767-2.222a.915.915,0,0,1,0-1.734,3.322,3.322,0,0,1,3,0l3.766,2.223a.915.915,0,0,1,0,1.733A3.318,3.318,0,0,1,493.051,330.468Z" transform="translate(-488.662 -326.153)"/></g><g transform="translate(13.146 11.051)"><path class="g" d="M471.788,326.8l-3.767-2.223a.915.915,0,0,1,0-1.733,3.321,3.321,0,0,1,3,0l3.766,2.222a.915.915,0,0,1,0,1.734A3.32,3.32,0,0,1,471.788,326.8Z" transform="translate(-467.4 -322.485)"/></g></g></g></g></svg>