<svg xmlns="http://www.w3.org/2000/svg" width="1788.02" height="1352.719" viewBox="0 0 1788.02 1352.719"><defs><style>.a,.b{fill:#461272;}.a{stroke:rgba(0,0,0,0);fill-rule:evenodd;}.c{fill:#9058f2;}</style></defs><g transform="translate(0.5 -97.762)"><path class="a" d="M1906.335,1487.9H1090.814a37.492,37.492,0,0,1-37.382-37.382V499.86a96.341,96.341,0,0,1,32.971,20.587,634.425,634.425,0,0,1,365.388-188.151c177.462-26.307,348.639,23.288,480.693,124.315a269.423,269.423,0,0,1,89.558-29.9c147.48-21.862,284.761,79.972,306.624,227.452,17.584,118.616-44.858,230.616-146.7,281.294,9.84,223.851-98.964,430.777-275.635,552.442Zm-852.9-1044.353a49.963,49.963,0,1,0,0-72.336v72.336Zm1129.057,815.17a56.057,56.057,0,1,0,63.671,47.229,56.059,56.059,0,0,0-63.671-47.229ZM2337.074,982.5a134.241,134.241,0,1,0,152.475,113.1A134.244,134.244,0,0,0,2337.074,982.5Z" transform="translate(-1053.432 -37.921)"/><ellipse class="b" cx="124.033" cy="124.033" rx="124.033" ry="124.033" transform="translate(786.647 97.762)"/><ellipse class="b" cx="257.858" cy="257.858" rx="257.858" ry="257.858" transform="translate(1151.285 775.745)"/><ellipse class="c" cx="29" cy="29" rx="29" ry="29" transform="translate(162.519 484)"/><ellipse class="c" cx="29" cy="29" rx="29" ry="29" transform="translate(1729.52 1392)"/></g></svg>