<svg xmlns="http://www.w3.org/2000/svg" width="84.555" height="200.576" viewBox="0 0 84.555 200.576"><defs><style>.a{fill:#e4e4e4;}</style></defs><g transform="translate(84.555) rotate(90)"><path class="a" d="M410.7,282.634a3.209,3.209,0,1,1,3.212-3.207A3.216,3.216,0,0,1,410.7,282.634Z" transform="translate(-407.484 -276.215)"/><path class="a" d="M417.709,282.634a3.209,3.209,0,1,1,3.212-3.207A3.213,3.213,0,0,1,417.709,282.634Z" transform="translate(-382.136 -276.215)"/><path class="a" d="M424.721,282.634a3.209,3.209,0,1,1,3.212-3.207A3.216,3.216,0,0,1,424.721,282.634Z" transform="translate(-356.792 -276.215)"/><path class="a" d="M431.737,282.634a3.209,3.209,0,1,1,3.212-3.207A3.217,3.217,0,0,1,431.737,282.634Z" transform="translate(-331.447 -276.215)"/><path class="a" d="M438.746,282.634a3.209,3.209,0,1,1,3.212-3.207A3.213,3.213,0,0,1,438.746,282.634Z" transform="translate(-306.099 -276.215)"/><path class="a" d="M445.758,282.634a3.209,3.209,0,1,1,3.212-3.207A3.216,3.216,0,0,1,445.758,282.634Z" transform="translate(-280.755 -276.215)"/><path class="a" d="M452.771,282.634a3.209,3.209,0,1,1,3.212-3.207A3.213,3.213,0,0,1,452.771,282.634Z" transform="translate(-255.407 -276.215)"/><g transform="translate(0 26.044)"><path class="a" d="M410.7,288.282a3.212,3.212,0,1,1,3.212-3.212A3.22,3.22,0,0,1,410.7,288.282Z" transform="translate(-407.484 -281.859)"/><path class="a" d="M417.709,288.282a3.212,3.212,0,1,1,3.212-3.212A3.217,3.217,0,0,1,417.709,288.282Z" transform="translate(-382.136 -281.859)"/><path class="a" d="M424.721,288.282a3.212,3.212,0,1,1,3.212-3.212A3.22,3.22,0,0,1,424.721,288.282Z" transform="translate(-356.792 -281.859)"/><path class="a" d="M431.737,288.282a3.212,3.212,0,1,1,3.212-3.212A3.221,3.221,0,0,1,431.737,288.282Z" transform="translate(-331.447 -281.859)"/><path class="a" d="M438.746,288.282a3.212,3.212,0,1,1,3.212-3.212A3.217,3.217,0,0,1,438.746,288.282Z" transform="translate(-306.099 -281.859)"/><path class="a" d="M445.758,288.282a3.212,3.212,0,1,1,3.212-3.212A3.22,3.22,0,0,1,445.758,288.282Z" transform="translate(-280.755 -281.859)"/><path class="a" d="M452.771,288.282a3.212,3.212,0,1,1,3.212-3.212A3.217,3.217,0,0,1,452.771,288.282Z" transform="translate(-255.407 -281.859)"/></g><g transform="translate(0 52.088)"><path class="a" d="M410.7,293.926a3.212,3.212,0,1,1,3.212-3.212A3.22,3.22,0,0,1,410.7,293.926Z" transform="translate(-407.484 -287.503)"/><path class="a" d="M417.709,293.926a3.212,3.212,0,1,1,3.212-3.212A3.217,3.217,0,0,1,417.709,293.926Z" transform="translate(-382.136 -287.503)"/><path class="a" d="M424.721,293.926a3.212,3.212,0,1,1,3.212-3.212A3.22,3.22,0,0,1,424.721,293.926Z" transform="translate(-356.792 -287.503)"/><path class="a" d="M431.737,293.926a3.212,3.212,0,1,1,3.212-3.212A3.221,3.221,0,0,1,431.737,293.926Z" transform="translate(-331.447 -287.503)"/><path class="a" d="M438.746,293.926a3.212,3.212,0,1,1,3.212-3.212A3.217,3.217,0,0,1,438.746,293.926Z" transform="translate(-306.099 -287.503)"/><path class="a" d="M445.758,293.926a3.212,3.212,0,1,1,3.212-3.212A3.22,3.22,0,0,1,445.758,293.926Z" transform="translate(-280.755 -287.503)"/><path class="a" d="M452.771,293.926a3.212,3.212,0,1,1,3.212-3.212A3.217,3.217,0,0,1,452.771,293.926Z" transform="translate(-255.407 -287.503)"/></g><g transform="translate(0 78.132)"><path class="a" d="M410.7,299.57a3.212,3.212,0,1,1,3.212-3.212A3.217,3.217,0,0,1,410.7,299.57Z" transform="translate(-407.484 -293.147)"/><path class="a" d="M417.709,299.57a3.212,3.212,0,1,1,3.212-3.212A3.214,3.214,0,0,1,417.709,299.57Z" transform="translate(-382.136 -293.147)"/><path class="a" d="M424.721,299.57a3.212,3.212,0,1,1,3.212-3.212A3.217,3.217,0,0,1,424.721,299.57Z" transform="translate(-356.792 -293.147)"/><path class="a" d="M431.737,299.57a3.212,3.212,0,1,1,3.212-3.212A3.218,3.218,0,0,1,431.737,299.57Z" transform="translate(-331.447 -293.147)"/><path class="a" d="M438.746,299.57a3.212,3.212,0,1,1,3.212-3.212A3.214,3.214,0,0,1,438.746,299.57Z" transform="translate(-306.099 -293.147)"/><path class="a" d="M445.758,299.57a3.212,3.212,0,1,1,3.212-3.212A3.217,3.217,0,0,1,445.758,299.57Z" transform="translate(-280.755 -293.147)"/><path class="a" d="M452.771,299.57a3.212,3.212,0,1,1,3.212-3.212A3.214,3.214,0,0,1,452.771,299.57Z" transform="translate(-255.407 -293.147)"/></g></g></svg>