<svg xmlns="http://www.w3.org/2000/svg" width="237.436" height="237.436" viewBox="0 0 237.436 237.436"><defs><style>.a{fill:#e4e4e4;}</style></defs><g transform="translate(64.594 0) rotate(90)"><g transform="translate(0 0)"><path class="a" d="M3.8,7.6A3.8,3.8,0,1,1,7.6,3.8,3.807,3.807,0,0,1,3.8,7.6Z"/><path class="a" d="M3.8,7.6A3.8,3.8,0,1,1,7.6,3.8,3.8,3.8,0,0,1,3.8,7.6Z" transform="translate(38.308)"/><path class="a" d="M3.8,7.6A3.8,3.8,0,1,1,7.6,3.8,3.807,3.807,0,0,1,3.8,7.6Z" transform="translate(76.611)"/><path class="a" d="M3.807,7.6a3.8,3.8,0,1,1,3.8-3.8A3.808,3.808,0,0,1,3.807,7.6Z" transform="translate(114.913)"/><path class="a" d="M3.8,7.6A3.8,3.8,0,1,1,7.6,3.8,3.8,3.8,0,0,1,3.8,7.6Z" transform="translate(153.221)"/><path class="a" d="M3.8,7.6A3.8,3.8,0,1,1,7.6,3.8,3.807,3.807,0,0,1,3.8,7.6Z" transform="translate(191.524)"/><path class="a" d="M3.8,7.6A3.8,3.8,0,1,1,7.6,3.8,3.8,3.8,0,0,1,3.8,7.6Z" transform="translate(229.832)"/></g><g transform="translate(0 18.992)"><path class="a" d="M3.8,7.6A3.8,3.8,0,1,1,7.6,3.8,3.812,3.812,0,0,1,3.8,7.6Z"/><path class="a" d="M3.8,7.6A3.8,3.8,0,1,1,7.6,3.8,3.808,3.808,0,0,1,3.8,7.6Z" transform="translate(38.308)"/><path class="a" d="M3.8,7.6A3.8,3.8,0,1,1,7.6,3.8,3.812,3.812,0,0,1,3.8,7.6Z" transform="translate(76.611)"/><path class="a" d="M3.807,7.6a3.8,3.8,0,1,1,3.8-3.8A3.813,3.813,0,0,1,3.807,7.6Z" transform="translate(114.913)"/><path class="a" d="M3.8,7.6A3.8,3.8,0,1,1,7.6,3.8,3.808,3.808,0,0,1,3.8,7.6Z" transform="translate(153.221)"/><path class="a" d="M3.8,7.6A3.8,3.8,0,1,1,7.6,3.8,3.812,3.812,0,0,1,3.8,7.6Z" transform="translate(191.524)"/><path class="a" d="M3.8,7.6A3.8,3.8,0,1,1,7.6,3.8,3.808,3.808,0,0,1,3.8,7.6Z" transform="translate(229.832)"/></g><g transform="translate(0 37.985)"><path class="a" d="M3.8,7.6A3.8,3.8,0,1,1,7.6,3.8,3.811,3.811,0,0,1,3.8,7.6Z"/><path class="a" d="M3.8,7.6A3.8,3.8,0,1,1,7.6,3.8,3.808,3.808,0,0,1,3.8,7.6Z" transform="translate(38.308)"/><path class="a" d="M3.8,7.6A3.8,3.8,0,1,1,7.6,3.8,3.812,3.812,0,0,1,3.8,7.6Z" transform="translate(76.611)"/><path class="a" d="M3.807,7.6a3.8,3.8,0,1,1,3.8-3.8A3.813,3.813,0,0,1,3.807,7.6Z" transform="translate(114.913)"/><path class="a" d="M3.8,7.6A3.8,3.8,0,1,1,7.6,3.8,3.808,3.808,0,0,1,3.8,7.6Z" transform="translate(153.221)"/><path class="a" d="M3.8,7.6A3.8,3.8,0,1,1,7.6,3.8,3.812,3.812,0,0,1,3.8,7.6Z" transform="translate(191.524)"/><path class="a" d="M3.8,7.6A3.8,3.8,0,1,1,7.6,3.8,3.808,3.808,0,0,1,3.8,7.6Z" transform="translate(229.832)"/></g><g transform="translate(0 56.977)"><path class="a" d="M3.8,7.6A3.8,3.8,0,1,1,7.6,3.8,3.808,3.808,0,0,1,3.8,7.6Z"/><path class="a" d="M3.8,7.6A3.8,3.8,0,1,1,7.6,3.8,3.8,3.8,0,0,1,3.8,7.6Z" transform="translate(38.308)"/><path class="a" d="M3.8,7.6A3.8,3.8,0,1,1,7.6,3.8,3.808,3.808,0,0,1,3.8,7.6Z" transform="translate(76.611)"/><path class="a" d="M3.807,7.6a3.8,3.8,0,1,1,3.8-3.8A3.809,3.809,0,0,1,3.807,7.6Z" transform="translate(114.913)"/><path class="a" d="M3.8,7.6A3.8,3.8,0,1,1,7.6,3.8,3.8,3.8,0,0,1,3.8,7.6Z" transform="translate(153.221)"/><path class="a" d="M3.8,7.6A3.8,3.8,0,1,1,7.6,3.8,3.808,3.808,0,0,1,3.8,7.6Z" transform="translate(191.524)"/><path class="a" d="M3.8,7.6A3.8,3.8,0,1,1,7.6,3.8,3.8,3.8,0,0,1,3.8,7.6Z" transform="translate(229.832)"/></g></g><g transform="translate(237.436 64.593) rotate(180)"><g transform="translate(0 56.983)"><path class="a" d="M3.8,0A3.8,3.8,0,1,0,7.6,3.8,3.807,3.807,0,0,0,3.8,0Z"/><path class="a" d="M3.8,0A3.8,3.8,0,1,0,7.6,3.8,3.8,3.8,0,0,0,3.8,0Z" transform="translate(38.308)"/><path class="a" d="M3.8,0A3.8,3.8,0,1,0,7.6,3.8,3.807,3.807,0,0,0,3.8,0Z" transform="translate(76.611)"/><path class="a" d="M3.807,0a3.8,3.8,0,1,0,3.8,3.8A3.808,3.808,0,0,0,3.807,0Z" transform="translate(114.913)"/><path class="a" d="M3.8,0A3.8,3.8,0,1,0,7.6,3.8,3.8,3.8,0,0,0,3.8,0Z" transform="translate(153.221)"/><path class="a" d="M3.8,0A3.8,3.8,0,1,0,7.6,3.8,3.807,3.807,0,0,0,3.8,0Z" transform="translate(191.524)"/><path class="a" d="M3.8,0A3.8,3.8,0,1,0,7.6,3.8,3.8,3.8,0,0,0,3.8,0Z" transform="translate(229.832)"/></g><g transform="translate(0 37.985)"><path class="a" d="M3.8,0A3.8,3.8,0,1,0,7.6,3.8,3.812,3.812,0,0,0,3.8,0Z" transform="translate(0 0)"/><path class="a" d="M3.8,0A3.8,3.8,0,1,0,7.6,3.8,3.808,3.808,0,0,0,3.8,0Z" transform="translate(38.308 0)"/><path class="a" d="M3.8,0A3.8,3.8,0,1,0,7.6,3.8,3.812,3.812,0,0,0,3.8,0Z" transform="translate(76.611 0)"/><path class="a" d="M3.807,0a3.8,3.8,0,1,0,3.8,3.8A3.813,3.813,0,0,0,3.807,0Z" transform="translate(114.913 0)"/><path class="a" d="M3.8,0A3.8,3.8,0,1,0,7.6,3.8,3.808,3.808,0,0,0,3.8,0Z" transform="translate(153.221 0)"/><path class="a" d="M3.8,0A3.8,3.8,0,1,0,7.6,3.8,3.812,3.812,0,0,0,3.8,0Z" transform="translate(191.524 0)"/><path class="a" d="M3.8,0A3.8,3.8,0,1,0,7.6,3.8,3.808,3.808,0,0,0,3.8,0Z" transform="translate(229.832 0)"/></g><g transform="translate(0 18.992)"><path class="a" d="M3.8,0A3.8,3.8,0,1,0,7.6,3.8,3.811,3.811,0,0,0,3.8,0Z" transform="translate(0 0)"/><path class="a" d="M3.8,0A3.8,3.8,0,1,0,7.6,3.8,3.808,3.808,0,0,0,3.8,0Z" transform="translate(38.308 0)"/><path class="a" d="M3.8,0A3.8,3.8,0,1,0,7.6,3.8,3.812,3.812,0,0,0,3.8,0Z" transform="translate(76.611 0)"/><path class="a" d="M3.807,0a3.8,3.8,0,1,0,3.8,3.8A3.813,3.813,0,0,0,3.807,0Z" transform="translate(114.913 0)"/><path class="a" d="M3.8,0A3.8,3.8,0,1,0,7.6,3.8,3.808,3.808,0,0,0,3.8,0Z" transform="translate(153.221 0)"/><path class="a" d="M3.8,0A3.8,3.8,0,1,0,7.6,3.8,3.812,3.812,0,0,0,3.8,0Z" transform="translate(191.524 0)"/><path class="a" d="M3.8,0A3.8,3.8,0,1,0,7.6,3.8,3.808,3.808,0,0,0,3.8,0Z" transform="translate(229.832 0)"/></g><g transform="translate(0 0)"><path class="a" d="M3.8,0A3.8,3.8,0,1,0,7.6,3.8,3.808,3.808,0,0,0,3.8,0Z"/><path class="a" d="M3.8,0A3.8,3.8,0,1,0,7.6,3.8,3.8,3.8,0,0,0,3.8,0Z" transform="translate(38.308)"/><path class="a" d="M3.8,0A3.8,3.8,0,1,0,7.6,3.8,3.808,3.808,0,0,0,3.8,0Z" transform="translate(76.611)"/><path class="a" d="M3.807,0a3.8,3.8,0,1,0,3.8,3.8A3.809,3.809,0,0,0,3.807,0Z" transform="translate(114.913)"/><path class="a" d="M3.8,0A3.8,3.8,0,1,0,7.6,3.8,3.8,3.8,0,0,0,3.8,0Z" transform="translate(153.221)"/><path class="a" d="M3.8,0A3.8,3.8,0,1,0,7.6,3.8,3.808,3.808,0,0,0,3.8,0Z" transform="translate(191.524)"/><path class="a" d="M3.8,0A3.8,3.8,0,1,0,7.6,3.8,3.8,3.8,0,0,0,3.8,0Z" transform="translate(229.832)"/></g></g></svg>