<svg xmlns="http://www.w3.org/2000/svg" width="209.26" height="48.414" viewBox="0 0 209.26 48.414"><defs><style>.a{fill:#fff;}.b{fill:#320a78;}</style></defs><g transform="translate(1698.097 6894)"><path class="a" d="M11.125-109.826H3.767v19.641h7.358c6.267,0,10.3-4,10.3-9.821C21.422-105.853,17.393-109.826,11.125-109.826Zm-2.574,15.5v-11.415h2.266c3.609,0,5.736,2.126,5.736,5.736s-2.126,5.68-5.736,5.68Zm17.571,4.141h4.784v-19.641H26.122ZM45.567-110.05a9.585,9.585,0,0,0-9.988,10.016A9.585,9.585,0,0,0,45.6-90.045a9.619,9.619,0,0,0,9.457-6.771v-4.449H44.644v3.525h6.071a4.705,4.705,0,0,1-4.756,3.469c-3.441,0-5.512-2.126-5.512-5.764,0-3.413,2.042-5.6,5.12-5.6a4.114,4.114,0,0,1,3.861,2.014h5.288C53.681-107.644,50.268-110.05,45.567-110.05ZM59.724-90.185h4.784v-19.641H59.724Zm9.2-15.808h5.2v15.808h4.784v-15.808h5.2v-3.833H68.929Zm33.015,15.808h5.064L99.9-109.826h-5.54L87.255-90.185h5.008l1.175-3.469h7.33Zm-2.406-7.163H94.7l2.406-7.191Zm11.639-12.478v19.641h11.052v-3.693h-6.267v-15.948Zm-94.008,47.8h5.064L15.126-81.667H9.587L2.48-62.026H7.488L8.663-65.5h7.33Zm-2.406-7.163H9.922l2.406-7.191Zm19.417-12.7a9.585,9.585,0,0,0-9.988,10.016,9.585,9.585,0,0,0,10.016,9.988,9.619,9.619,0,0,0,9.457-6.771v-4.449H33.257v3.525h6.071a4.705,4.705,0,0,1-4.756,3.469c-3.441,0-5.512-2.126-5.512-5.764,0-3.413,2.042-5.6,5.12-5.6a4.114,4.114,0,0,1,3.861,2.014h5.288C42.294-79.485,38.88-81.891,34.18-81.891Zm24.789.224H46.938v19.641H58.969v-3.833H51.722v-4.309H58.13v-3.693H51.722v-3.973h7.246Zm16.507,0V-69.5l-8-12.171H62.69v19.641h4.784V-74.141l8,12.115h4.784V-81.667Zm8.058,9.793c0,5.876,4.085,9.988,9.876,9.988,4.672,0,8.2-2.6,9.317-6.855h-5.26a4.327,4.327,0,0,1-4.113,2.518c-2.938,0-4.952-2.182-4.952-5.652s2.014-5.652,4.952-5.652a4.327,4.327,0,0,1,4.113,2.518h5.26c-1.119-4.253-4.644-6.883-9.317-6.883C87.619-81.891,83.534-77.75,83.534-71.874Zm28.007,3.357v6.491h4.784v-6.491l6.8-13.15h-5.372l-3.777,8.226-3.805-8.226h-5.428Z" transform="translate(-1611.961 -6783.95)"/><rect class="a" width="83" height="48" transform="translate(-1698.097 -6893.586)"/><path class="b" d="M-249.163-148.532v-4.791h2.532c1.851,0,2.641.926,2.641,2.4s-.789,2.4-2.641,2.4Zm9.909-2.4c0-3.512-2.341-6.152-7.024-6.152h-7.541v19.111h4.655v-6.86h2.886C-241.4-144.829-239.254-147.769-239.254-150.927Zm2.423-6.152v19.111h10.753v-3.593h-6.1V-157.08Zm12.9,11.406c0,5.281,3.457,7.895,7.895,7.895,4.41,0,8.112-2.613,8.112-7.895V-157.08h-4.655v11.434c0,2.26-1.171,3.566-3.376,3.566s-3.321-1.307-3.321-3.566V-157.08h-4.655Zm33.158,2.014c0-6.4-9.446-4.9-9.446-8.221a1.694,1.694,0,0,1,1.96-1.742,2.069,2.069,0,0,1,2.205,1.987h5.036c-.191-3.648-2.995-5.717-7.16-5.717-4,0-6.969,2.015-6.969,5.635-.054,6.779,9.5,4.873,9.5,8.412,0,1.116-.871,1.8-2.232,1.8a2.191,2.191,0,0,1-2.368-2.178H-205.2c.136,3.866,3.348,5.907,7.459,5.907C-193.274-137.779-190.77-140.446-190.77-143.659Z" transform="translate(-1434.249 -6722.359)"/></g></svg>